<svg width="24" height="24" viewBox="0 0 24 24" fill="none" xmlns="http://www.w3.org/2000/svg">
<g id="address">
<path id="Union" fill-rule="evenodd" clip-rule="evenodd" d="M18.875 6.68512C18.875 11.699 12 18.9412 12 18.9412C12 18.9412 5.12502 11.699 5.12502 6.68512C5.12502 2.99303 8.20306 0 12 0C15.797 0 18.875 2.99303 18.875 6.68512ZM14.75 6.76471C14.75 8.25912 13.5188 9.47059 12 9.47059C10.4812 9.47059 9.25002 8.25912 9.25002 6.76471C9.25002 5.27029 10.4812 4.05882 12 4.05882C13.5188 4.05882 14.75 5.27029 14.75 6.76471ZM4.30002 16.2353H8.25762C8.87191 16.9932 9.47478 17.6803 10.0111 18.2647H5.59782L4.27782 20.9706H19.7222L18.4022 18.2647H13.9889C14.5253 17.6803 15.1281 16.9932 15.7424 16.2353H19.7L22.01 20.9706L23 23H20.7122H3.28782H1.00002L1.99002 20.9706L4.30002 16.2353Z" fill="#A4A4A4"/>
</g>
</svg>
