<svg width="40" height="40" viewBox="0 0 40 40" fill="none" xmlns="http://www.w3.org/2000/svg">
<path fill-rule="evenodd" clip-rule="evenodd" d="M22.1789 4.99998C22.1789 7.20912 20.408 8.99997 18.2236 8.99997C16.0391 8.99997 14.2683 7.20912 14.2683 4.99998C14.2683 2.79085 16.0391 1 18.2236 1C20.408 1 22.1789 2.79085 22.1789 4.99998ZM18.2236 37.9999V28L18.0278 27.2571L12.2166 24.4351L14.2683 29V37.9999H18.2236ZM17.0212 23.44L17.0214 23.4405L8.82115 19.4583L8.82131 19.4579L2 16.1454L3.71215 12.5395L5.05133 13.1899L5.48244 12.0273C5.71975 11.3873 6.26703 10.9126 6.93409 10.768L11.5587 9.76581C12.3571 9.59279 13.1894 9.66838 13.9436 9.98243L19.0705 12.1174C20.3831 12.664 21.3069 13.8663 21.4969 15.2755L22.3483 21.5897L30.8829 25.7343C31.3633 25.4058 32.0734 25.552 32.3497 26.1323L37.9999 38.0001H22.1788L24.6114 32.6697C24.9366 31.9572 25.6477 31.5001 26.4309 31.5001H27.1229L28.6551 29.0897L17.0212 23.44ZM16.8348 18.9122L18.4539 19.6984L18.2236 19L17.7292 16.5L16.8348 18.9122ZM7.97399 14.6092L10.358 15.7669L11.3019 13.5L8.33541 14L7.97399 14.6092ZM7.34659 23L7.66863 22.2265L11.6011 24.1362L7.34659 37.9999H3.3913L7.34659 23Z" fill="#6E6E6E"/>
</svg>
