<svg width="40" height="40" viewBox="0 0 40 40" fill="none" xmlns="http://www.w3.org/2000/svg">
<path fill-rule="evenodd" clip-rule="evenodd" d="M1.35424 7.9643C1.47803 6.57098 1.53993 5.87432 1.78235 5.23273C2.32809 3.78837 3.62622 2.60046 5.11321 2.18469C5.77374 2 6.51583 2 8 2C9.48417 2 10.2263 2 10.8868 2.18469C12.3738 2.60046 13.6719 3.78837 14.2177 5.23273C14.4601 5.87432 14.522 6.57098 14.6458 7.9643C14.8388 10.1364 15 12.5382 15 14.5C15 16.4618 14.8388 18.8636 14.6458 21.0357C14.522 22.429 14.4601 23.1257 14.2177 23.7673C13.6719 25.2116 12.3738 26.3995 10.8868 26.8153C10.2263 27 9.48417 27 8 27C6.51583 27 5.77374 27 5.11321 26.8153C3.62622 26.3995 2.32809 25.2116 1.78235 23.7673C1.53993 23.1257 1.47803 22.429 1.35424 21.0357C1.16124 18.8636 1 16.4618 1 14.5C1 12.5382 1.16124 10.1364 1.35424 7.9643ZM4 13V9H12V13H4ZM4 16V20H12V16H4ZM18 2H22V10H18V2ZM18 16H22V24H18V16ZM22 30H18V38H22V30ZM25.3542 18.9643V18.9643C25.1612 21.1364 25 23.5382 25 25.5C25 27.4618 25.1612 29.8636 25.3542 32.0357V32.0357C25.478 33.429 25.5399 34.1257 25.7824 34.7673C26.3281 36.2116 27.6262 37.3995 29.1132 37.8153C29.7737 38 30.5158 38 32 38C33.4842 38 34.2263 38 34.8868 37.8153C36.3738 37.3995 37.6719 36.2116 38.2177 34.7673C38.4601 34.1257 38.522 33.429 38.6458 32.0357C38.8388 29.8636 39 27.4618 39 25.5C39 23.5382 38.8388 21.1364 38.6458 18.9643C38.522 17.571 38.4601 16.8743 38.2177 16.2327C37.6719 14.7884 36.3738 13.6005 34.8868 13.1847C34.2263 13 33.4842 13 32 13C30.5158 13 29.7737 13 29.1132 13.1847C27.6262 13.6005 26.3281 14.7884 25.7824 16.2327C25.5399 16.8743 25.478 17.571 25.3542 18.9643ZM28 20V24H36V20H28ZM28 31V27H36V31H28Z" fill="#6E6E6E"/>
</svg>
