<svg width="24" height="24" viewBox="0 0 24 24" fill="none" xmlns="http://www.w3.org/2000/svg">
<g id="email">
<path id="Union" fill-rule="evenodd" clip-rule="evenodd" d="M2.25283 12C2.25283 8.03599 3.67594 5.66399 5.50526 4.2508C7.38423 2.79924 9.83272 2.25284 12.0028 2.25284C16.203 2.25284 21.7528 5.78154 21.7528 12C21.7528 13.6018 21.394 14.5377 21.0175 15.0239C20.67 15.4726 20.2797 15.5884 19.9114 15.5424C19.1562 15.448 17.9739 14.4992 17.8097 12.4816C17.8227 12.3228 17.8293 12.1622 17.8293 12.0001C17.8293 8.78292 15.2207 6.17492 12.0027 6.17492C8.78472 6.17492 6.17604 8.78292 6.17604 12.0001C6.17604 15.2172 8.78472 17.8252 12.0027 17.8252C13.8338 17.8252 15.4677 16.9807 16.5358 15.66C17.2811 16.8389 18.3833 17.6218 19.632 17.7778C20.8175 17.926 21.9809 17.4593 22.7987 16.4032C23.5876 15.3845 24.0056 13.8933 24.0056 12C24.0056 4.23816 17.1253 7.62939e-06 12.0028 7.62939e-06C9.51161 7.62939e-06 6.5219 0.618634 4.12799 2.46799C1.68444 4.3557 0 7.4205 0 12C0 16.6757 2.15239 19.7216 4.74832 21.5599C7.28787 23.3583 10.2397 24 12.0028 24H12.0174H12.032H12.0465H12.0611H12.0757H12.0903H12.1049H12.1195H12.1341H12.1487H12.1633H12.1779H12.1926H12.2072H12.2218H12.2364H12.2511H12.2657H12.2803H12.295H12.3096H12.3243H12.3389H12.3536H12.3683H12.3829H12.3976H12.4122H12.4269H12.4416H12.4563H12.4709H12.4856H12.5003H12.515H12.5296H12.5443H12.559H12.5737H12.5884H12.6031H12.6178H12.6325H12.6472H12.6619H12.6766H12.6912H12.7059H12.7206H12.7353H12.75H12.7647H12.7794H12.7941H12.8088H12.8236H12.8383H12.853H12.8677H12.8824H12.8971H12.9118H12.9265H12.9412H12.9559H12.9706H12.9853H12.9999H13.0146H13.0293H13.044H13.0587H13.0734H13.0881H13.1028H13.1175H13.1322H13.1469H13.1615H13.1762H13.1909H13.2056H13.2202H13.2349H13.2496H13.2643H13.2789H13.2936H13.3082H13.3229H13.3376H13.3522H13.3669H13.3815H13.3961H13.4108H13.4254H13.44H13.4547H13.4693H13.4839H13.4985H13.5132H13.5278H13.5424H13.557H13.5716H13.5862H13.6008H13.6153H13.6299H13.6445H13.6591H13.6736H13.6882H13.7028H13.7173H13.7319H13.7464H13.761H13.7755H13.79H13.8045H13.8191H13.8336H13.8481H13.8626H13.8771H13.8916H13.906H13.9205H13.935H13.9494H13.9639H13.9783H13.9928H14.0072H14.0217H14.0361H14.0505H14.0649H14.0793H14.0937H14.1081H14.1225H14.1369H14.1512H14.1656H14.1799H14.1943H14.2086H14.2229H14.2373H14.2516H14.2659H14.2802H14.2945H14.3087H14.323H14.3373H14.3515H14.3658H14.38H14.3942H14.4085H14.4227H14.4369H14.4511H14.4652H14.4794H14.4936H14.5077H14.5219H14.536H14.5501H14.5643H14.5784H14.5925H14.6065H14.6206H14.6347H14.6487H14.6628H14.6768H14.6908H14.7048H14.7188H14.7328H14.7468H14.7608H14.7747H14.7887H14.8026H14.8165H14.8305H14.8444H14.8583H14.8721H14.886H14.8998H14.9137H14.9275H14.9413H14.9551H14.9689H14.9827H14.9965H15.0102H15.024H15.0377H15.0514H15.0651H15.0788H15.0925H15.1062H15.1198H15.1335H15.1471H15.1607H15.1743H15.1879H15.2015H15.215H15.2286H15.2421H15.2556H15.2691H15.2826H15.2961H15.3095H15.323H15.3364H15.3498H15.3632H15.3766H15.39H15.4034H15.4167H15.43H15.4433H15.4566H15.4699H15.4832H15.4964H15.5097H15.5229H15.5361H15.5493H15.5624H15.5756H15.5887H15.6019H15.615H15.6281H15.6411H15.6542H15.6672H15.6803H15.6933H15.7063H15.7192H15.7322H15.7451H15.758H15.7709H15.7838H15.7967H15.8096H15.8224H15.8352H15.848H15.8608H15.8736H15.8863H15.899H15.9117H15.9244H15.9371H15.9498H15.9624H15.975H15.9876H16.0002H16.0128H16.0253H16.0378H16.0503H16.0628H16.0753H16.0877H16.1002H16.1126H16.1249H16.1373H16.1497H16.162H16.1743H16.1866H16.1989H16.2111H16.2233H16.2355H16.2477H16.2599H16.272H16.2842H16.2963H16.3084H16.3204H16.3325H16.3445H16.3565H16.3685H16.3804H16.3924H16.4043H16.4162H16.428H16.4399H16.4517H16.4635H16.4753H16.4871H16.4988H16.5105H16.5222H16.5339H16.5455H16.5572H16.5688H16.5803H16.5919H16.6034H16.615H16.6264H16.6379H16.6494H16.6608H16.6722H16.6835H16.6949H16.7062H16.7175H16.7288H16.7401H16.7513H16.7625H16.7737H16.7848H16.796H16.8071H16.8182H16.8292H16.8402H16.8513H16.8622H16.8732H16.8841H16.8951H16.9059H16.9168H16.9276H16.9384H16.9492H16.96H16.9707H16.9814H16.9921H17.0028H17.0134H17.024H17.0346H17.0451H17.0556H17.0661H17.0766H17.087H17.0975H17.1079H17.1182H17.1286H17.1389H17.1492H17.1594H17.1696H17.1798H17.19H17.2002H17.2103H17.2204H17.2304H17.2405H17.2505H17.2605H17.2704H17.2803H17.2902H17.3001H17.3099H17.3197H17.3295H17.3393H17.349H17.3587H17.3684H17.378H17.3876H17.3972H17.4067H17.4162H17.4257H17.4352H17.4446H17.454H17.4634H17.4727H17.4821H17.4913H17.5006H17.5098H17.519H17.5282H17.5373H17.5464H17.5555H17.5645H17.5735H17.5825H17.5914H17.6003H17.6092H17.6181H17.6269H17.6357H17.6445H17.6532H17.6619H17.6705H17.6792H17.6878H17.6963H17.7049H17.7134H17.7219H17.7303H17.7387H17.7471H17.7554H17.7637H17.772H17.7803H17.7885H17.7966H17.8048H17.8129H17.821H17.829H17.837H17.845H17.853H17.8609H17.8688H17.8766H17.8844H17.8922H17.8999H17.9076H17.9153H17.923H17.9306H17.9381H17.9457H17.9532H17.9606H17.9681H17.9755H17.9828H17.9902H17.9975H18.0047H18.0119H18.0191H18.0263H18.0334H18.0405H18.0475H18.0545H18.0615H18.0685H18.0754H18.0822H18.0891H18.0958H18.1026H18.1093H18.116H18.1227H18.1293H18.1358H18.1424H18.1489H18.1553H18.1618H18.1682H18.1745H18.1808H18.1871H18.1933H18.1995H18.2057H18.2118H18.2179V21.7472H18.2118H18.2057H18.1995H18.1933H18.1871H18.1808H18.1745H18.1682H18.1618H18.1553H18.1489H18.1424H18.1358H18.1293H18.1227H18.116H18.1093H18.1026H18.0958H18.0891H18.0822H18.0754H18.0685H18.0615H18.0545H18.0475H18.0405H18.0334H18.0263H18.0191H18.0119H18.0047H17.9975H17.9902H17.9828H17.9755H17.9681H17.9606H17.9532H17.9457H17.9381H17.9306H17.923H17.9153H17.9076H17.8999H17.8922H17.8844H17.8766H17.8688H17.8609H17.853H17.845H17.837H17.829H17.821H17.8129H17.8048H17.7966H17.7885H17.7803H17.772H17.7637H17.7554H17.7471H17.7387H17.7303H17.7219H17.7134H17.7049H17.6963H17.6878H17.6792H17.6705H17.6619H17.6532H17.6445H17.6357H17.6269H17.6181H17.6092H17.6003H17.5914H17.5825H17.5735H17.5645H17.5555H17.5464H17.5373H17.5282H17.519H17.5098H17.5006H17.4913H17.4821H17.4727H17.4634H17.454H17.4446H17.4352H17.4257H17.4162H17.4067H17.3972H17.3876H17.378H17.3684H17.3587H17.349H17.3393H17.3295H17.3197H17.3099H17.3001H17.2902H17.2803H17.2704H17.2605H17.2505H17.2405H17.2304H17.2204H17.2103H17.2002H17.19H17.1798H17.1696H17.1594H17.1492H17.1389H17.1286H17.1182H17.1079H17.0975H17.087H17.0766H17.0661H17.0556H17.0451H17.0346H17.024H17.0134H17.0028H16.9921H16.9814H16.9707H16.96H16.9492H16.9384H16.9276H16.9168H16.9059H16.8951H16.8841H16.8732H16.8622H16.8513H16.8402H16.8292H16.8182H16.8071H16.796H16.7848H16.7737H16.7625H16.7513H16.7401H16.7288H16.7175H16.7062H16.6949H16.6835H16.6722H16.6608H16.6494H16.6379H16.6264H16.615H16.6034H16.5919H16.5803H16.5688H16.5572H16.5455H16.5339H16.5222H16.5105H16.4988H16.4871H16.4753H16.4635H16.4517H16.4399H16.428H16.4162H16.4043H16.3924H16.3804H16.3685H16.3565H16.3445H16.3325H16.3204H16.3084H16.2963H16.2842H16.272H16.2599H16.2477H16.2355H16.2233H16.2111H16.1989H16.1866H16.1743H16.162H16.1497H16.1373H16.1249H16.1126H16.1002H16.0877H16.0753H16.0628H16.0503H16.0378H16.0253H16.0128H16.0002H15.9876H15.975H15.9624H15.9498H15.9371H15.9244H15.9117H15.899H15.8863H15.8736H15.8608H15.848H15.8352H15.8224H15.8096H15.7967H15.7838H15.7709H15.758H15.7451H15.7322H15.7192H15.7063H15.6933H15.6803H15.6672H15.6542H15.6411H15.6281H15.615H15.6019H15.5887H15.5756H15.5624H15.5493H15.5361H15.5229H15.5097H15.4964H15.4832H15.4699H15.4566H15.4433H15.43H15.4167H15.4034H15.39H15.3766H15.3632H15.3498H15.3364H15.323H15.3095H15.2961H15.2826H15.2691H15.2556H15.2421H15.2286H15.215H15.2015H15.1879H15.1743H15.1607H15.1471H15.1335H15.1198H15.1062H15.0925H15.0788H15.0651H15.0514H15.0377H15.024H15.0102H14.9965H14.9827H14.9689H14.9551H14.9413H14.9275H14.9137H14.8998H14.886H14.8721H14.8583H14.8444H14.8305H14.8165H14.8026H14.7887H14.7747H14.7608H14.7468H14.7328H14.7188H14.7048H14.6908H14.6768H14.6628H14.6487H14.6347H14.6206H14.6065H14.5925H14.5784H14.5643H14.5501H14.536H14.5219H14.5077H14.4936H14.4794H14.4652H14.4511H14.4369H14.4227H14.4085H14.3942H14.38H14.3658H14.3515H14.3373H14.323H14.3087H14.2945H14.2802H14.2659H14.2516H14.2373H14.2229H14.2086H14.1943H14.1799H14.1656H14.1512H14.1369H14.1225H14.1081H14.0937H14.0793H14.0649H14.0505H14.0361H14.0217H14.0072H13.9928H13.9783H13.9639H13.9494H13.935H13.9205H13.906H13.8916H13.8771H13.8626H13.8481H13.8336H13.8191H13.8045H13.79H13.7755H13.761H13.7464H13.7319H13.7173H13.7028H13.6882H13.6736H13.6591H13.6445H13.6299H13.6153H13.6008H13.5862H13.5716H13.557H13.5424H13.5278H13.5132H13.4985H13.4839H13.4693H13.4547H13.44H13.4254H13.4108H13.3961H13.3815H13.3669H13.3522H13.3376H13.3229H13.3082H13.2936H13.2789H13.2643H13.2496H13.2349H13.2202H13.2056H13.1909H13.1762H13.1615H13.1469H13.1322H13.1175H13.1028H13.0881H13.0734H13.0587H13.044H13.0293H13.0146H12.9999H12.9853H12.9706H12.9559H12.9412H12.9265H12.9118H12.8971H12.8824H12.8677H12.853H12.8383H12.8236H12.8088H12.7941H12.7794H12.7647H12.75H12.7353H12.7206H12.7059H12.6912H12.6766H12.6619H12.6472H12.6325H12.6178H12.6031H12.5884H12.5737H12.559H12.5443H12.5296H12.515H12.5003H12.4856H12.4709H12.4563H12.4416H12.4269H12.4122H12.3976H12.3829H12.3683H12.3536H12.3389H12.3243H12.3096H12.295H12.2803H12.2657H12.2511H12.2364H12.2218H12.2072H12.1926H12.1779H12.1633H12.1487H12.1341H12.1195H12.1049H12.0903H12.0757H12.0611H12.0465H12.032H12.0174H12.0028C10.6584 21.7472 8.17203 21.2239 6.05027 19.7214C3.98487 18.2588 2.25283 15.8678 2.25283 12ZM15.5765 12H15.5377C15.5377 12.1476 15.5418 12.2936 15.5499 12.4379C15.334 14.2039 13.8286 15.5724 12.0027 15.5724C10.0284 15.5724 8.42888 13.9724 8.42888 12.0001C8.42888 10.0277 10.0284 8.42775 12.0027 8.42775C13.977 8.42775 15.5765 10.0277 15.5765 12Z" fill="#A4A4A4"/>
</g>
</svg>
