<svg width="40" height="40" viewBox="0 0 40 40" fill="none" xmlns="http://www.w3.org/2000/svg">
<path fill-rule="evenodd" clip-rule="evenodd" d="M14 7C14 9.20914 12.2091 11 10 11C7.79086 11 6 9.20914 6 7C6 4.79086 7.79086 3 10 3C12.2091 3 14 4.79086 14 7ZM8 38V27H10V38H14V17L21 21.5L23 19L15.5372 13.7321C14.8623 13.2558 14.0565 13 13.2304 13H6C3.79086 13 2 14.7909 2 17V27H4V38H8ZM17 24C17 22.8954 17.8954 22 19 22H36C37.1046 22 38 22.8954 38 24V31C38 32.1046 37.1046 33 36 33H34V38H30V33H25V38H21V33H19C17.8954 33 17 32.1046 17 31V24ZM30.0833 25H34L32 29H28.4167L30.0833 25ZM26.5 25H23L21 29H24.5L26.5 25Z" fill="#6E6E6E"/>
</svg>
