<svg width="24" height="25" viewBox="0 0 24 25" fill="none" xmlns="http://www.w3.org/2000/svg">
<g id="icon / eye">
<path id="Union" fill-rule="evenodd" clip-rule="evenodd" d="M23 12.5C23 14 19 20.5 12 20.5C5 20.5 1 14 1 12.5C1 11 5 4.5 12 4.5C19 4.5 23 11 23 12.5ZM17 12.5C17 15.2614 14.7614 17.5 12 17.5C9.23858 17.5 7 15.2614 7 12.5C7 9.73858 9.23858 7.5 12 7.5C14.7614 7.5 17 9.73858 17 12.5ZM12 15.5C13.6569 15.5 15 14.1569 15 12.5C15 10.8431 13.6569 9.5 12 9.5C10.3431 9.5 9 10.8431 9 12.5C9 14.1569 10.3431 15.5 12 15.5Z" fill="#2C4F1E"/>
</g>
</svg>
