<svg width="40" height="40" viewBox="0 0 40 40" fill="none" xmlns="http://www.w3.org/2000/svg">
<path fill-rule="evenodd" clip-rule="evenodd" d="M26.8669 1.67994C26.5462 0.299243 24.9261 -0.314987 23.7644 0.503673L21.4074 2.16472C20.6968 2.66546 19.7448 2.65216 19.0507 2.13181L16.7432 0.401876C15.6067 -0.450095 13.9652 0.121665 13.6029 1.49565L12.8741 4.25954C12.6521 5.10145 11.91 5.70431 11.0394 5.75012L8.17259 5.90096C6.74891 5.97587 5.85459 7.46969 6.46419 8.75458L7.68771 11.3335C8.06092 12.1201 7.88004 13.0585 7.24064 13.6528L5.14698 15.5986C4.10342 16.5684 4.37762 18.283 5.67107 18.8758L8.28759 20.0749C9.07785 20.437 9.54209 21.2678 9.43613 22.1302L9.09256 24.9264L6.03711 30.8898L4.5 33.8898H7.87086H11.4728L12.5445 36.4985L13.983 39.9999L15.8806 36.7245L19.4835 30.5059C19.7188 30.5473 19.9604 30.547 20.1959 30.5046L23.7995 36.7245L25.6972 39.9999L27.1357 36.4985L28.2074 33.8898H31.8093H35.1802L33.6431 30.8898L30.6702 25.0875L30.4244 22.4425C30.3438 21.5753 30.8354 20.7547 31.6395 20.4144L34.2757 19.2988C35.5891 18.743 35.9189 17.0352 34.9058 16.0364L32.8657 14.0252C32.2461 13.4144 32.0946 12.4728 32.4911 11.697L33.7928 9.15033C34.4399 7.88432 33.5959 6.3702 32.1782 6.25383L29.2996 6.01753C28.4338 5.94646 27.7139 5.32585 27.5177 4.48134L26.8669 1.67994ZM25.238 33.2231L22.4106 28.3429L23.1228 27.3192C23.6197 26.605 24.5212 26.2921 25.3533 26.545L28.1081 27.3824C28.2447 27.4239 28.3813 27.4502 28.5162 27.4625L30.2722 30.8898H28.2074H26.1966L25.4325 32.7498L25.238 33.2231ZM11.2981 27.2007C11.3968 27.189 11.4964 27.1698 11.5963 27.1426L14.3853 26.3835C15.2236 26.1554 16.1125 26.4924 16.5861 27.2179L17.2935 28.3016L14.4422 33.2231L14.2477 32.7498L13.4836 30.8898H11.4728H9.40796L11.2981 27.2007ZM20.0399 18.3101L27.0127 11.6445L24.9396 9.47599L19.0248 15.1303L16.157 12.2747L14.0402 14.4005L17.945 18.2888L18.982 19.3214L20.0399 18.3101Z" fill="#6E6E6E"/>
</svg>
