<svg width="24" height="24" viewBox="0 0 24 24" fill="none" xmlns="http://www.w3.org/2000/svg">
<g id="office-phone">
<path id="Subtract" fill-rule="evenodd" clip-rule="evenodd" d="M7.00002 2.14925H4.14288V17.9104H7.00002V2.14925ZM9.14288 2.14925C9.14288 0.962254 8.18349 0 7.00002 0H4.14288C2.95941 0 2.00002 0.962254 2.00002 2.14925V17.9104C2.00002 19.0974 2.95941 20.0597 4.14288 20.0597H4.50002C4.50002 20.7533 4.74423 21.6997 5.33931 22.4955C5.96853 23.337 6.98863 24 8.42859 24C9.77583 24 10.8821 23.5231 11.5693 22.4203C11.9769 21.7663 12.1903 20.9587 12.2879 20.0597H19.8572C21.0406 20.0597 22 19.0974 22 17.9104V2.14925C22 0.962254 21.0406 0 19.8572 0H11.2857C10.1023 0 9.14288 0.962254 9.14288 2.14925ZM7.05359 21.206C6.75582 20.8078 6.64288 20.3213 6.64288 20.0597H7.00002C8.18349 20.0597 9.14288 19.0974 9.14288 17.9104C9.14288 18.6857 9.55217 19.3652 10.1659 19.7432C10.0938 20.4817 9.94583 20.9704 9.75217 21.2812C9.54648 21.6113 9.22421 21.8507 8.42859 21.8507C7.7257 21.8507 7.31722 21.5585 7.05359 21.206ZM12 4.29851H19.1429V7.16418H12V4.29851ZM14.8572 8.59702H12V11.4627H14.8572V8.59702ZM19.1429 8.59702H16.2857V11.4627H19.1429V8.59702ZM16.2857 12.8955H19.1429V15.7612H16.2857V12.8955ZM14.8572 12.8955H12V15.7612H14.8572V12.8955Z" fill="#A4A4A4"/>
</g>
</svg>
