<svg width="24" height="24" viewBox="0 0 24 24" fill="none" xmlns="http://www.w3.org/2000/svg">
<g id="icon / telegram-app">
<path id="Vector" d="M21.9614 1.00197C21.6146 1.01705 21.2963 1.1168 21.0168 1.227C20.7585 1.32872 19.8309 1.71858 18.3539 2.33808C16.8769 2.95758 14.9198 3.77895 12.8337 4.65634C8.66144 6.41112 3.97291 8.38501 1.57051 9.39601C1.48801 9.43038 1.15296 9.53296 0.782913 9.8156C0.412005 10.0989 0 10.7137 0 11.3861C0 11.9285 0.270771 12.4809 0.597733 12.7972C0.924694 13.1135 1.25606 13.2614 1.53301 13.3715V13.3692C2.46916 13.7421 5.26482 14.8608 5.93045 15.1272C6.16655 15.8347 7.18014 18.8637 7.42126 19.6254H7.41892C7.58936 20.1646 7.75548 20.5159 7.98618 20.8092C8.10153 20.9558 8.23922 21.0887 8.40811 21.1936C8.47291 21.2339 8.54466 21.2651 8.61673 21.2944C8.62677 21.2987 8.63712 21.2997 8.6472 21.3038L8.61907 21.2968C8.63997 21.3052 8.65872 21.3176 8.68002 21.3249C8.71472 21.3368 8.73878 21.3364 8.7855 21.346C8.94993 21.3966 9.11406 21.4304 9.26603 21.4304C9.91845 21.4304 10.3185 21.0764 10.3185 21.0764L10.3443 21.0577L13.1618 18.6738L16.6123 21.8664C16.6753 21.9553 17.169 22.6235 18.3117 22.6235C18.9936 22.6235 19.5326 22.286 19.8775 21.932C20.2224 21.578 20.4373 21.2158 20.5339 20.7248L20.5362 20.7225C20.6133 20.3262 23.9163 3.73982 23.9163 3.73982L23.9093 3.76795C24.0121 3.30907 24.0425 2.86531 23.921 2.41309C23.7996 1.96086 23.4718 1.51953 23.0772 1.28794C22.6825 1.05635 22.3082 0.98688 21.9614 1.00197ZM21.4879 3.62965C21.3574 4.28497 18.3985 19.1501 18.2156 20.0825L13.2322 15.4718L9.86376 18.3198L10.7967 14.6725C10.7967 14.6725 17.2326 8.15787 17.6202 7.77862C17.9323 7.47498 17.9976 7.36854 17.9976 7.26293C17.9976 7.12251 17.9253 7.02149 17.7585 7.02149C17.6085 7.02149 17.4048 7.16524 17.2967 7.23245C15.9242 8.08817 10.0781 11.4197 7.20327 13.0551C7.03026 12.9857 4.43276 11.9427 3.0332 11.3838C5.52264 10.336 9.78996 8.54065 13.7643 6.86913C15.85 5.99189 17.8066 5.16977 19.2822 4.55086C20.5277 4.02842 21.1775 3.75791 21.4879 3.62965ZM18.1805 20.2537H18.1828C18.1827 20.2539 18.1806 20.2603 18.1805 20.2607C18.182 20.2529 18.1793 20.2597 18.1805 20.2537Z" fill="#2C4F1E"/>
</g>
</svg>
